<svg xmlns="http://www.w3.org/2000/svg" width="24" height="24" viewBox="0 0 24 24">
    <path fill="#3F3356" fill-rule="nonzero" stroke="#3F3356" stroke-width=".4" d="M15.072 18.018c.106-.019.152-.021.194-.034.61-.194.969-.626 1.081-1.238a4.612 4.612 0 0 0-.53-3.172c-.405-.718-1.035-.997-1.83-.86a31.694 31.694 0 0 0-5.36 1.41C6.75 14.8 4.965 15.67 3.23 16.651c-.215.122-.308.317-.25.59.055.26.112.534.439.598.286.056.573.11.86.156.404.065.808.122 1.25.188-.04-.057-.053-.078-.068-.097a.454.454 0 0 1-.073-.52c.092-.189.259-.256.46-.248.087.004.174.007.26.017 1.532.176 3.07.225 4.612.18.582-.017.802-.28.721-.852-.037-.265.098-.477.349-.546a.47.47 0 0 1 .573.306c.056.156.076.328.15.473.07.134.17.273.292.357.219.149.695.087.904-.088.245-.204.267-.458.19-.756a22.537 22.537 0 0 1-.307-1.378.452.452 0 0 1 .283-.515.463.463 0 0 1 .56.182c.06.09.101.202.122.31.151.762.337 1.515.651 2.228.123.279.177.53-.136.782zm2.254-1.381c-.106.704-.374 1.343-1.013 1.844h.268c.83 0 1.66-.003 2.49.002.379.002.608.336.467.665a.455.455 0 0 1-.38.284c-.045.007-.092.005-.139.005-3.28-.001-6.56.013-9.84-.01-1.928-.013-3.84-.238-5.732-.611-.256-.05-.53-.11-.747-.243-.856-.527-1.044-2.258.104-2.781.205-.093.392-.223.593-.324.109-.054.134-.116.108-.235-.14-.628-.288-1.254-.398-1.887-.234-1.351-.287-2.701.056-4.049.596-2.333 2.968-4.502 5.968-4.235 1.125.1 2.141.497 3.017 1.218.455.375.894.769 1.355 1.168.062-.139.129-.286.194-.434.127-.285.247-.573.38-.854.12-.254.366-.34.616-.231.249.109.357.35.25.608-.152.367-.321.728-.482 1.092-.034.077-.066.155-.121.286.093-.07.143-.105.19-.144.52-.434 1.036-.872 1.559-1.302a.835.835 0 0 1 .306-.172.452.452 0 0 1 .516.247c.098.203.053.422-.144.59-.536.456-1.077.905-1.616 1.358a.397.397 0 0 0-.126.163l1.155-.268c.09-.02.18-.05.271-.062a.467.467 0 0 1 .542.357c.057.25-.066.487-.325.559-.421.116-.848.212-1.273.317-.031.008-.062.018-.113.034.032.057.058.106.086.154.29.483.587.962.866 1.452.403.71.605 1.48.668 2.292.009.11.041.22.07.327.097.364.213.725.294 1.093.147.668.655 1.091 1.336 1.063.524-.021 1.047-.067 1.57-.103.364-.024.608.21.562.548-.027.196-.14.364-.33.378-.734.054-1.47.107-2.204.1-.283-.002-.566-.163-.874-.259zm1.088-1.437c-.28-.004-.483-.173-.509-.419-.028-.267.116-.48.395-.532.743-.137 1.488-.261 2.233-.388.274-.047.549-.097.825-.123.204-.019.355.096.444.278a.42.42 0 0 1-.067.483.57.57 0 0 1-.294.184c-.991.18-1.985.345-2.978.514-.02.003-.04.002-.049.003zm1.156-3.115c.292 0 .484.151.526.364.05.254-.054.469-.3.56-.502.184-1.01.355-1.515.532l-.282.095c-.3.097-.547-.002-.64-.256-.103-.278.022-.536.324-.644.46-.164.923-.323 1.386-.483.186-.065.374-.126.501-.168zm2.415 6.861a.48.48 0 0 1-.47.49.489.489 0 0 1-.49-.473.482.482 0 0 1 .473-.486.47.47 0 0 1 .487.47zm-13.56-2.818c-.002.287-.19.487-.46.487a.48.48 0 0 1-.499-.498c.003-.282.197-.49.46-.493.28-.003.5.22.499.504z"/>
</svg>
