<svg xmlns="http://www.w3.org/2000/svg" width="24" height="24" viewBox="0 0 24 24">
    <path fill="#3F3356" fill-rule="nonzero" d="M15.5 8a4.505 4.505 0 0 1 4.5 4.5c0 1.619-1.353 3.857-4.134 6.841a.5.5 0 0 1-.732 0C12.353 16.357 11 14.119 11 12.5A4.505 4.505 0 0 1 15.5 8zm0 6a1.5 1.5 0 1 0 0-3 1.5 1.5 0 0 0 0 3zm-8-10A3.5 3.5 0 0 1 11 7.5c0 1.244-1.023 2.988-3.128 5.334a.5.5 0 0 1-.744 0C5.023 10.488 4 8.744 4 7.5A3.5 3.5 0 0 1 7.5 4zm0 4.5a1 1 0 1 0 0-2 1 1 0 0 0 0 2zM11 20a5.006 5.006 0 0 1-5-5 1 1 0 0 1 2 0 3 3 0 0 0 3 3 1 1 0 0 1 0 2z"/>
</svg>
