<svg xmlns="http://www.w3.org/2000/svg" width="24" height="24" viewBox="0 0 24 24">
    <g fill="none" fill-rule="evenodd">
        <path fill="#3F3356" stroke="#3F3356" stroke-width=".2" d="M21 12.445a2.803 2.803 0 0 0-2.46-2.778 2.802 2.802 0 0 0-1.296-2.108c.153-.088.295-.196.422-.323.489-.489.699-1.196.576-1.94a.351.351 0 0 0-.29-.29c-.744-.123-1.452.087-1.941.576-.407.406-.62.964-.61 1.568a2.804 2.804 0 0 0-2.436 2.517 2.796 2.796 0 0 0-1.771.941 1.97 1.97 0 0 0-.112-.464 1.99 1.99 0 0 0 1.264-1.85 1.989 1.989 0 0 0-1.986-1.986h-.022c.108-.31.195-.711.172-1.169a.352.352 0 0 0-.241-.316c-.446-.146-.96-.004-1.326.15a2.995 2.995 0 0 0-.876-1.56.352.352 0 0 0-.402-.055c-.874.454-1.267 1.206-1.44 1.73a1.746 1.746 0 0 0-.767-.242.352.352 0 0 0-.354.234c-.166.47-.14.898-.06 1.228h-.057A1.989 1.989 0 0 0 3 8.294c0 .783.456 1.462 1.115 1.785a1.977 1.977 0 0 0 .32 2.045H3.353a.352.352 0 0 0-.352.352v7.172c0 .194.157.351.352.351h17.296a.352.352 0 0 0 .352-.351v-7.172-.016-.015zm-.728-.32h-4.144a2.1 2.1 0 0 1 2.072-1.777 2.1 2.1 0 0 1 2.072 1.776zm-3.764-6.046c.27-.27.65-.413 1.064-.404.008.416-.133.794-.404 1.064-.27.27-.65.412-1.064.404-.007-.416.134-.794.404-1.064zm-.756 1.752a2.1 2.1 0 0 1 2.08 1.84 2.805 2.805 0 0 0-2.08 1.418 2.805 2.805 0 0 0-2.08-1.419 2.1 2.1 0 0 1 2.08-1.84zm-2.448 2.517a2.1 2.1 0 0 1 2.072 1.776h-4.144a2.1 2.1 0 0 1 2.072-1.776zM10.36 7.011c.707 0 1.283.575 1.283 1.283 0 .65-.484 1.187-1.11 1.272h-.002a1.28 1.28 0 0 1-.999-.291 1.976 1.976 0 0 0-.185-1.769c.241-.31.613-.495 1.013-.495zM7.673 9.857A1.285 1.285 0 0 1 6.39 8.574c0-.708.575-1.284 1.283-1.284s1.284.576 1.284 1.284c0 .694-.555 1.261-1.244 1.282H7.71l-.037.001zm.033 2.267h-.24c.042-.05.082-.102.12-.157.037.055.078.107.12.157zm-.472-1.283c0 .707-.576 1.283-1.283 1.283a1.285 1.285 0 0 1-1.15-1.852 1.991 1.991 0 0 0 1.38-.39c.26.298.61.518 1.007.618.03.11.046.224.046.34zm.74-.303c.472-.072.89-.312 1.192-.656.341.257.758.399 1.194.399h.016a1.285 1.285 0 0 1-1.155 1.844 1.285 1.285 0 0 1-1.248-1.587zM5.696 5.61c.288.11.476.322.477.323a.352.352 0 0 0 .617-.197c.001-.01.104-1.028.975-1.622.537.636.54 1.386.54 1.393a.352.352 0 0 0 .538.303c.157-.098.6-.323.96-.345a2.489 2.489 0 0 1-.334 1.052 1.986 1.986 0 0 0-.605.467 1.976 1.976 0 0 0-2.384 0 2.002 2.002 0 0 0-.614-.47 1.562 1.562 0 0 1-.17-.904zM3.703 8.294A1.285 1.285 0 0 1 6 7.506a1.974 1.974 0 0 0-.184 1.768 1.267 1.267 0 0 1-1.115.271 1.285 1.285 0 0 1-.997-1.25z"/>
        <path fill="#FFF" d="M9 13h6v2H9z"/>
    </g>
</svg>
