<svg xmlns="http://www.w3.org/2000/svg" width="24" height="24" viewBox="0 0 24 24">
    <g fill="none" fill-rule="evenodd">
        <path stroke="#3F3356" d="M12.007 19L21 14.487c-.077-.047-.118-.076-.162-.098-2.887-1.455-5.773-2.912-8.664-4.358-.099-.05-.268-.036-.37.016-2.85 1.428-5.696 2.865-8.542 4.3-.077.04-.15.086-.262.15l.075.037L12.007 19z"/>
        <path fill="#3F3356" fill-rule="nonzero" d="M11.994 16.89l10.976-5.46c-.094-.057-.144-.092-.198-.119-3.523-1.761-7.046-3.524-10.575-5.274-.12-.06-.326-.043-.452.02C8.267 7.784 4.794 9.522 1.32 11.26c-.094.047-.184.103-.32.18l.091.046 10.902 5.404h.001z"/>
    </g>
</svg>
