<svg xmlns="http://www.w3.org/2000/svg" width="18" height="18" viewBox="0 0 18 18">
    <path fill="#99A1B2" fill-rule="nonzero" d="M.527 18A.527.527 0 0 1 0 17.473v-2.49c0-1.248.906-2.336 2.155-2.585l3.154-.631v-.149A2.68 2.68 0 0 1 3.199 9V6.014C1.531 5.707.42 5.304.345 5.276a.527.527 0 0 1 0-.99c.074-.027 1.186-.43 2.854-.738v-.911A2.64 2.64 0 0 1 5.836 0h2.11a2.64 2.64 0 0 1 2.636 2.637v.912c1.668.307 2.78.71 2.854.737a.527.527 0 0 1 0 .99c-.074.027-1.186.43-2.854.738V9a2.68 2.68 0 0 1-2.11 2.618v.148l3.189.631a2.644 2.644 0 0 1 2.12 2.586v2.49a.527.527 0 0 1-.527.527H.527zm3.727-2.11v1.055h5.273v-1.054H4.254zm8.473-.907c0-.751-.535-1.404-1.272-1.551l-.873-.173v3.686h2.145v-1.962zm-3.2-1.933l-1.054-.209v.413c0 .082-.02.163-.056.236l-.673 1.346h1.783V13.05zM4.254 2.637v.743A19.889 19.889 0 0 1 6.89 3.2c.938 0 1.83.072 2.636.18v-.743c0-.873-.71-1.582-1.582-1.582h-2.11c-.871 0-1.581.71-1.581 1.582zM6.89 4.254c-1.458 0-2.98.192-4.427.527 1.13.26 2.706.528 4.427.528 1.46 0 2.982-.194 4.426-.527-1.13-.261-2.705-.528-4.426-.528zm0 2.11c-.94 0-1.83-.074-2.637-.182v1.236h1.582c.69 0 1.277-.444 1.493-1.06-.145.003-.291.005-.438.005zM4.254 9c0 .877.724 1.617 1.582 1.617.291 0 .527.236.527.528v1.984l.528 1.055.527-1.055v-1.984c0-.292.236-.528.527-.528.858 0 1.582-.74 1.582-1.617V6.182c-.35.047-.717.087-1.096.118a2.64 2.64 0 0 1-2.595 2.173H4.254V9zm1.11 4.49a.527.527 0 0 1-.055-.236v-.412l-1.055.211v1.783h1.783l-.673-1.346zm-4.31 1.493v1.962H3.2v-3.68l-.837.167c-.758.151-1.307.804-1.307 1.551zm12.727-8.092v3.199c0 .29.237.527.528.527h.527V6.891a.527.527 0 0 1 1.055 0v3.726h.527c.29 0 .527-.236.527-.527v-3.2a.527.527 0 0 1 1.055 0v3.2c0 .872-.71 1.582-1.582 1.582h-.527v5.8a.527.527 0 0 1-1.055 0v-5.8h-.527c-.873 0-1.582-.71-1.582-1.582v-3.2a.527.527 0 0 1 1.054 0z"/>
</svg>
