<svg xmlns="http://www.w3.org/2000/svg" width="15" height="17" viewBox="0 0 15 17">
    <path fill="#99a1b2" fill-rule="evenodd" d="M10.645 7.174c0 .36-.292.652-.652.652H3.276a.652.652 0 1 1 0-1.304h6.717c.36 0 .652.292.652.652zM3.275 9.13h4.08a.652.652 0 1 1 0 1.305h-4.08a.652.652 0 1 1 0-1.305zm1.533 6.261a.652.652 0 1 1 0 1.305h-2.18a2.612 2.612 0 0 1-2.61-2.609V2.609A2.612 2.612 0 0 1 2.629 0h8.017a2.612 2.612 0 0 1 2.61 2.609v4.01a.652.652 0 1 1-1.305 0V2.61c0-.72-.585-1.305-1.305-1.305H2.627c-.719 0-1.304.585-1.304 1.305v11.478c0 .72.585 1.304 1.304 1.304h2.181zm9.601-5.948a1.959 1.959 0 0 1 0 2.767l-3.573 3.566a.652.652 0 0 1-.286.167l-2.633.729a.651.651 0 0 1-.798-.818l.78-2.567a.652.652 0 0 1 .163-.272l3.58-3.573a1.959 1.959 0 0 1 2.767 0zm-4.373 5.289l2.402-2.398-.923-.922-2.416 2.41-.387 1.276 1.324-.366zm3.451-3.445a.653.653 0 0 0-.922-.922l-.126.126.922.922.126-.126zM9.993 3.913a.652.652 0 1 1 0 1.304H3.276a.652.652 0 1 1 0-1.304h6.717z"/>
</svg>
