<svg xmlns="http://www.w3.org/2000/svg" width="14" height="14" viewBox="0 0 14 14">
    <path fill="#99A1B2" fill-rule="nonzero" d="M6.04 5.175H.15L0 5.025V.15L.15 0h5.89l.15.15v4.875l-.15.15zm-.962-1.112v-2.95H1.113v2.95h3.965zm.963 9.237H.15L0 13.15V6.244l.15-.15h5.89l.15.15v6.906l-.15.15zm-.963-1.113v-4.98H1.113v4.98h3.965zm8.072-4.98H7.26l-.15-.15V.15L7.26 0h5.89l.15.15v6.906l-.15.15zm-.963-1.113V1.112H8.223v4.982h3.966zm.963 7.206H7.26l-.15-.15V8.275l.15-.15h5.89l.15.15v4.875l-.15.15zm-.963-1.113v-2.95H8.223v2.95h3.966z"/>
</svg>
