<svg xmlns="http://www.w3.org/2000/svg" width="14" height="14" viewBox="0 0 14 14">
    <path fill="#99a1b2" fill-rule="nonzero" d="M1.566 2.669c-.006.087-.01.119-.01.15 0 2.204-.007 4.408.01 6.61.002.205.132.423.248.606.102.16.269.28.405.418l.852.869c.026-.058.038-.071.038-.085 0-2.3.002-4.601 0-6.902 0-.06-.016-.136-.054-.175-.482-.489-.969-.972-1.489-1.491zm9.783.442c-.447-.446-.848-.835-1.236-1.236a1.01 1.01 0 0 0-.778-.323c-2.13.007-4.26.003-6.391.003h-.29c.498.498.952.945 1.397 1.401.11.114.222.159.38.158 2.212-.005 4.423-.003 6.635-.003h.283zM9.769 0c.733.128 1.265.567 1.76 1.089.556.588 1.138 1.153 1.715 1.72A2.42 2.42 0 0 1 14 4.64c-.007.51.002 1.02-.002 1.531-.004.49-.34.836-.794.828-.438-.007-.758-.356-.76-.837-.003-.486 0-.971 0-1.476H4.681v7.759h3.01c.512.001.866.326.862.785-.005.449-.356.769-.853.77H4.567a2.312 2.312 0 0 1-1.685-.688c-.736-.73-1.466-1.467-2.201-2.198C.305 10.74.116 10.274 0 9.77V1.264C.13.887.293.526.643.304.837.182 1.056.1 1.263 0H9.77zm2.552 10.486c.042.101.067.167.096.23.324.7.653 1.4.972 2.102.207.457.007.935-.446 1.091-.413.143-.833-.042-1.023-.464-.324-.716-.64-1.436-.96-2.154-.02-.047-.043-.092-.075-.163-.063.054-.118.099-.17.146-.265.245-.52.503-.8.728-.092.073-.261.097-.383.077-.161-.027-.228-.172-.228-.333 0-1.656-.001-3.312.002-4.967 0-.217.113-.372.319-.457.229-.094.42-.024.59.135l2.044 1.918c.51.479 1.018.959 1.53 1.434.14.13.236.269.16.46-.079.198-.254.22-.443.218-.384-.003-.769 0-1.185 0z"/>
</svg>
