<svg xmlns="http://www.w3.org/2000/svg" width="18" height="18" viewBox="0 0 18 18">
    <path fill="#99A1B2" fill-rule="nonzero" d="M4.408 7.096c1.166 0 2.115.949 2.115 2.115 0 1.167-.949 2.116-2.115 2.116a2.118 2.118 0 0 1-2.116-2.116c0-1.166.95-2.115 2.116-2.115zm0 3.173a1.06 1.06 0 0 0 0-2.115 1.06 1.06 0 0 0 0 2.115zM9.38 7.636h2.115v1.3H9.38v-1.3zm3.173 0h2.116v1.3h-2.116v-1.3zM9.38 9.752h2.115v1.3H9.38v-1.3zm3.173 0h2.116v1.3h-2.116v-1.3zM9.38 3.453h2.115v1.3H9.38v-1.3zm3.173 0h2.116v1.3h-2.116v-1.3zM9.38 5.57h2.115v1.3H9.38v-1.3zm3.173 0h2.116v1.3h-2.116v-1.3zm3.315-4.51l2.115.008v14.087H6.246c-.754 1.25-1.393 2.191-1.4 2.203L4.407 18l-.438-.643A54.726 54.726 0 0 1 2.01 14.2C.656 11.84 0 10.207 0 9.211a4.413 4.413 0 0 1 5.96-4.125V1.065h2.15V0h7.758v1.06zM4.408 16.103c1.225-1.888 3.35-5.46 3.35-6.89a3.354 3.354 0 0 0-3.35-3.35 3.354 3.354 0 0 0-3.35 3.35c0 1.43 2.125 5.002 3.35 6.89zm12.518-2.006V2.121l-2.116-.007V1.058H9.168v1.065h-2.15V5.66a4.404 4.404 0 0 1 1.798 3.55c0 .981-.639 2.58-1.95 4.885h4.63V11.91h1.057v2.186h4.373z"/>
</svg>
