<svg xmlns="http://www.w3.org/2000/svg" width="16" height="19" viewBox="0 0 16 19">
    <path fill="#99A1B2" fill-rule="nonzero" d="M14.786 7.174a1.6 1.6 0 0 1 0 2.26 1.6 1.6 0 0 1-2.025.196l-.042.008c-1.528.306-2.958.92-4.218 1.801l.256.256a1.598 1.598 0 0 1 0 2.261l-.376.377 1.13 1.13a1.597 1.597 0 1 1-2.26 2.26l-2.638-2.637-.377.377a1.598 1.598 0 0 1-2.26 0L.469 13.956a1.598 1.598 0 0 1 0-2.26L3.234 8.93a11.153 11.153 0 0 0 3.06-5.717l.008-.042a1.598 1.598 0 0 1 2.455-2.025l6.029 6.028zM3.483 14.71l2.637-2.638-2.26-2.26-2.638 2.637a.533.533 0 0 0 0 .753L2.73 14.71a.533.533 0 0 0 .754 0zm5.274 1.507L6.12 13.579l-.754.754 2.638 2.637a.533.533 0 0 0 .753-.753zm-1.883-3.391l.753.753.377-.377a.533.533 0 0 0 0-.753l-.352-.352c-.379.323-.618.568-.778.729zm.022-1.485a12.201 12.201 0 0 1 4.941-2.594L7.184 4.094A12.202 12.202 0 0 1 4.59 9.035l2.306 2.306zm7.136-2.66a.534.534 0 0 0 0-.753L8.004 1.9a.533.533 0 1 0-.754.753l6.029 6.028a.533.533 0 0 0 .753 0zm-9.796 3.014a.533.533 0 0 1 0 .754l-.753.753a.533.533 0 0 1-.754-.753l.754-.754a.533.533 0 0 1 .753 0zM11.205 0c.294 0 .532.239.532.533v1.065a.533.533 0 0 1-1.065 0V.533c0-.294.238-.533.533-.533zm4.262 4.263a.533.533 0 0 1 0 1.065h-1.065a.533.533 0 0 1 0-1.065h1.065zm-.689-3.041a.533.533 0 0 1 0 .753l-1.065 1.066a.533.533 0 1 1-.754-.754l1.066-1.065a.533.533 0 0 1 .753 0z"/>
</svg>
