<svg xmlns="http://www.w3.org/2000/svg" width="49" height="44" viewBox="0 0 49 44">
    <g fill="none" fill-rule="nonzero">
        <path fill="#8DC640" d="M45.18 40.716c-5.362 4.379-22.107 4.379-27.36 0-5.363-4.378-4.816-23.096 0-28.022 4.815-4.925 22.545-4.925 27.36 0 4.816 4.926 5.363 23.644 0 28.022z"/>
        <path fill="#FFF" d="M31.822 33.031c-4.867 3.82-10.288 5.784-15.376 5.893-3.761-6.33-2.987-21.715 1.438-26.19 3.982-4.037 16.482-4.8 23.672-2.29 1.77 7.201-1.88 16.367-9.734 22.587z" opacity=".2"/>
        <path fill="#FFF" d="M42 26.5a1.96 1.96 0 0 1-1.969 1.969H33.47v6.562A1.96 1.96 0 0 1 31.5 37a1.96 1.96 0 0 1-1.969-1.969V28.47H22.97A1.96 1.96 0 0 1 21 26.5a1.96 1.96 0 0 1 1.969-1.969h6.562V17.97A1.96 1.96 0 0 1 31.5 16a1.96 1.96 0 0 1 1.969 1.969v6.562h6.562A1.96 1.96 0 0 1 42 26.5z"/>
        <path fill="#8DC640" fill-opacity=".39" d="M17 8c0 .833-.667 1.5-1.5 1.5h-5v5c0 .833-.667 1.5-1.5 1.5s-1.5-.667-1.5-1.5v-5h-5C1.667 9.5 1 8.833 1 8s.667-1.5 1.5-1.5h5v-5C7.5.667 8.167 0 9 0s1.5.667 1.5 1.5v5h5c.833 0 1.5.667 1.5 1.5zM9 28.5a.84.84 0 0 1-.844.844H5.344v2.812A.84.84 0 0 1 4.5 33a.84.84 0 0 1-.844-.844v-2.812H.844A.84.84 0 0 1 0 28.5a.84.84 0 0 1 .844-.844h2.812v-2.812A.84.84 0 0 1 4.5 24a.84.84 0 0 1 .844.844v2.812h2.812A.84.84 0 0 1 9 28.5z"/>
    </g>
</svg>
