<svg xmlns="http://www.w3.org/2000/svg" width="24" height="24" viewBox="0 0 24 24">
    <g fill="#3F3356" fill-rule="nonzero">
        <path d="M4.804 17.511h14.277v-10.7H4.804v10.7zM3 17.86V6.454c.15-.434.337-.849.74-1.104.222-.141.475-.235.714-.35H19.38c.251.11.518.194.75.336.43.266.63.702.76 1.173v11.294c-.063.172-.111.35-.19.514-.269.554-.743.845-1.32.995H4.51c-.463-.13-.893-.323-1.162-.742-.142-.22-.234-.473-.348-.711z"/>
        <path d="M6.59 11.242h6.227V9.488H6.59zM6.593 15.722h4.438v-1.755H6.593zM16.427 9.088l1.258 1.257-1.275 1.275-1.256-1.26 1.273-1.272M15.155 14.832l1.248-1.248 1.256 1.265-1.25 1.243-1.254-1.26"/>
    </g>
</svg>
