<svg xmlns="http://www.w3.org/2000/svg" width="24" height="24" viewBox="0 0 24 24">
    <path fill="#3F3356" fill-rule="nonzero" d="M5.789 18.938h12.383V9.215H5.789v9.723zM19.956 6.28v12.942c-.011.018-.027.035-.032.056-.238.945-.88 1.45-1.85 1.45-4.067 0-8.135.001-12.202 0-1.111 0-1.87-.753-1.871-1.857V6.624c0-1.093.76-1.848 1.854-1.851h.805V3h1.773v1.759h7.091V3h1.773v1.773c.31 0 .59-.002.869 0 .859.01 1.546.556 1.746 1.385.01.042.03.081.044.122zm-8.43 10.312l-2.763-2.763 1.213-1.21c.49.494 1.01 1.02 1.54 1.553.99-.992 1.954-1.956 2.9-2.901l1.216 1.215-4.106 4.106z"/>
</svg>
