<svg xmlns="http://www.w3.org/2000/svg" xmlns:xlink="http://www.w3.org/1999/xlink" width="24" height="24" viewBox="0 0 24 24">
    <defs>
        <path id="a" d="M0 .04h1.714V1.76H0z"/>
        <path id="c" d="M0 .04h1.714V1.76H0z"/>
        <path id="e" d="M0 .04h1.714V1.76H0z"/>
        <path id="g" d="M0 .04h1.714V1.76H0z"/>
    </defs>
    <g fill="none" fill-rule="evenodd">
        <path fill="#3F3356" d="M6 4.756h12V3.043H6zM6 20.185h12V18.47H6zM18 6.642l-.067.156a.858.858 0 0 1-.957.513.86.86 0 0 1-.69-.841c0-.407.285-.753.69-.841a.86.86 0 0 1 .958.514l.066.156v.343zM18 10.07l-.067.156a.858.858 0 0 1-.957.513.86.86 0 0 1-.69-.84c0-.407.285-.754.69-.842a.86.86 0 0 1 .958.514l.066.156v.343zM18 13.499l-.067.156a.858.858 0 0 1-.957.513.86.86 0 0 1-.69-.84c0-.408.285-.754.69-.842a.86.86 0 0 1 .958.514l.066.156v.343zM18 16.927l-.067.156a.858.858 0 0 1-.957.514.86.86 0 0 1-.69-.841c0-.407.285-.754.69-.841a.86.86 0 0 1 .958.514l.066.156v.342z"/>
        <g transform="translate(6 5.57)">
            <mask id="b" fill="#fff">
                <use xlink:href="#a"/>
            </mask>
            <path fill="#3F3356" d="M0 .729L.067.573a.86.86 0 0 1 .957-.514.86.86 0 0 1 .69.84.86.86 0 0 1-.69.842.859.859 0 0 1-.957-.514L0 1.071V.73z" mask="url(#b)"/>
        </g>
        <g transform="translate(6 8.999)">
            <mask id="d" fill="#fff">
                <use xlink:href="#c"/>
            </mask>
            <path fill="#3F3356" d="M0 .729L.067.573a.86.86 0 0 1 .957-.514.86.86 0 0 1 .69.84.86.86 0 0 1-.69.842.859.859 0 0 1-.957-.514L0 1.071V.73z" mask="url(#d)"/>
        </g>
        <g transform="translate(6 12.427)">
            <mask id="f" fill="#fff">
                <use xlink:href="#e"/>
            </mask>
            <path fill="#3F3356" d="M0 .729L.067.573a.86.86 0 0 1 .957-.514.86.86 0 0 1 .69.84.86.86 0 0 1-.69.842.859.859 0 0 1-.957-.514L0 1.071V.73z" mask="url(#f)"/>
        </g>
        <g transform="translate(6 15.856)">
            <mask id="h" fill="#fff">
                <use xlink:href="#g"/>
            </mask>
            <path fill="#3F3356" d="M0 .729L.067.573a.86.86 0 0 1 .957-.514.86.86 0 0 1 .69.84.86.86 0 0 1-.69.842.859.859 0 0 1-.957-.514L0 1.071V.73z" mask="url(#h)"/>
        </g>
        <path fill="#3F3356" d="M9.424 15.036h1.708V8.192H9.425L12 4.757l2.562 3.416h-1.691v6.863h1.705L12 18.47l-2.576-3.435"/>
    </g>
</svg>
