<svg xmlns="http://www.w3.org/2000/svg" width="24" height="24" viewBox="0 0 24 24">
    <g fill="#3F3356" fill-rule="nonzero">
        <path d="M11.91 11.068h2.235v1.373H11.91v-1.373zm3.353 0h2.235v1.373h-2.235v-1.373zm-3.353 2.235h2.235v1.373H11.91v-1.373zm3.353 0h2.235v1.373h-2.235v-1.373zM11.91 6.649h2.235v1.373H11.91V6.65zm3.353 0h2.235v1.373h-2.235V6.65zM11.91 8.884h2.235v1.373H11.91V8.884zm3.353 0h2.235v1.373h-2.235V8.884zm3.502-4.764L21 4.127v14.884H8.599c-.797 1.32-1.472 2.315-1.48 2.327l-.462.68-.462-.68a57.82 57.82 0 0 1-2.072-3.334C2.694 15.51 2 13.784 2 12.732a4.662 4.662 0 0 1 6.296-4.358V4.125h2.273V3h8.196v1.12zM6.657 20.012c1.294-1.994 3.54-5.768 3.54-7.28a3.543 3.543 0 0 0-3.54-3.54 3.543 3.543 0 0 0-3.54 3.54c0 1.512 2.246 5.286 3.54 7.28zm13.225-2.119V5.241l-2.235-.008V4.118h-5.96v1.125H9.414v3.739a4.653 4.653 0 0 1 1.9 3.75c0 1.036-.674 2.726-2.06 5.161h4.892v-2.31h1.117v2.31h4.62z"/>
        <path d="M6.5 8C3.811 8 1 10.078 1 13.5c0 3.239 4.889 8.189 5.072 8.372a.555.555 0 0 0 .428.184.555.555 0 0 0 .428-.184C7.11 21.69 12 16.74 12 13.5 12 10.078 9.189 8 6.5 8zm0 7.333A1.8 1.8 0 0 1 4.667 13.5 1.8 1.8 0 0 1 6.5 11.667 1.8 1.8 0 0 1 8.333 13.5 1.8 1.8 0 0 1 6.5 15.333z"/>
    </g>
</svg>
