<svg xmlns="http://www.w3.org/2000/svg" width="24" height="24" viewBox="0 0 24 24">
    <path fill="#3F3356" fill-rule="evenodd" stroke="#3F3356" d="M4.774 16.085c0 .517.024.999-.006 1.477-.04.65.242 1.129.71 1.533.479.415 1.033.703 1.619.933 1.416.556 2.896.783 4.407.825 1.773.048 3.516-.138 5.194-.75.722-.265 1.405-.605 1.963-1.152.37-.362.581-.787.553-1.323-.02-.388-.004-.778-.004-1.168v-.35c-.04.01-.055.009-.063.016-.849.775-1.873 1.216-2.96 1.521-2.1.59-4.235.696-6.39.405-1.816-.244-3.554-.705-5.023-1.967m.007-3.726c0 .636.01 1.309-.003 1.98-.008.434.163.784.45 1.084.171.18.36.35.563.493.93.653 1.989.989 3.086 1.215a15.59 15.59 0 0 0 5.626.114c1.066-.168 2.1-.447 3.065-.946.46-.237.889-.52 1.23-.917.25-.293.413-.618.407-1.02-.009-.66.002-1.32.004-1.98 0-.023-.008-.046-.01-.06-.337.236-.65.49-.994.688-1.417.816-2.976 1.15-4.582 1.312a16.413 16.413 0 0 1-3.928-.078c-1.194-.167-2.362-.437-3.442-.986-.511-.26-.984-.598-1.472-.899m14.414-3.88c-.744.693-1.596 1.12-2.515 1.411-2.885.912-5.797.94-8.72.199-1.023-.26-1.99-.658-2.83-1.315-.111-.087-.216-.181-.35-.293 0 .71.01 1.381-.003 2.052-.008.44.168.796.459 1.1.168.175.353.338.55.48.734.524 1.567.833 2.431 1.062 1.623.43 3.276.543 4.945.425 1.3-.092 2.576-.323 3.79-.818.677-.276 1.316-.615 1.815-1.167.273-.302.446-.642.44-1.068-.011-.646 0-1.293.003-1.94 0-.03-.007-.06-.015-.128m-6.797 1.372c.431-.042 1.261-.094 2.083-.21 1.074-.15 2.114-.44 3.085-.942.52-.269 1.002-.589 1.351-1.072.392-.54.413-1.123-.004-1.643a4.025 4.025 0 0 0-.869-.795c-.828-.563-1.772-.862-2.742-1.078-1.623-.362-3.265-.436-4.917-.272-1.218.12-2.41.365-3.538.86-.627.274-1.218.605-1.67 1.134-.241.282-.405.595-.398.984.01.521.298.888.655 1.215.488.449 1.07.744 1.68.983 1.57.612 3.213.81 5.284.836M11.16 3h1.662l.803.079c1.31.127 2.596.375 3.799.923.505.23.99.522 1.44.846.633.455 1.034 1.078 1.124 1.873v11.164c-.009.03-.023.061-.026.092-.061.703-.438 1.23-.945 1.68-.545.483-1.18.814-1.852 1.08-1.288.507-2.631.755-4.007.843-1.971.126-3.913-.03-5.801-.648-.87-.284-1.693-.666-2.391-1.274-.635-.553-.982-1.226-.965-2.095.025-1.319.007-2.639.006-3.958C4.007 12.595 4 11.586 4 10.577c0-1.2.003-2.401.001-3.602 0-.53.132-1.015.447-1.446.408-.556.95-.948 1.55-1.264 1.255-.661 2.61-.978 4.005-1.147.385-.046.772-.079 1.158-.118"/>
</svg>
